# xmcd
#
# Track frame offsets:
# 150
# 16102
# 30467
# 52042
# 66615
# 81370
# 97765
# 114282
# 136477
# 152092
# 166850
# 183707
# 212475
#
# Disc length: 3036 seconds
#
#
# Revision: 1
# Processed by: cddbd v1.5.1PL2 Copyright (c) Steve Scherf et al.
# Submitted via: FreeRIP 2.942 
#
DISCID=a70bda0d
DTITLE=Agnaldo Timóteo - Revivendo Os Grandes Sucessos de Agnaldo Timóteo
DYEAR=1996
DGENRE=Brega
TTITLE0=Quem É
TTITLE1=Meu Grito
TTITLE2=Vai Meu Coração
TTITLE3=Os Verdes Campos Da Minha Terra (Green Green Grass Of Home)
TTITLE4=Quem Sabe
TTITLE5=Eu Vou Sair Pra Buscar Você
TTITLE6=Tristeza Danada
TTITLE7=Silêncio
TTITLE8=Os Brutos Também Amam
TTITLE9=Quem Será
TTITLE10=A Casa De Irene (D'a Casa De Irene)
TTITLE11=A volta Do Boêmio - Pensando Em Ti - Meu Vício É Você (Pop pourri Nelson Gonçalves)
TTITLE12=Mamãe (La Mama)
EXTD=
EXTT0=
EXTT1=
EXTT2=
EXTT3=
EXTT4=
EXTT5=
EXTT6=
EXTT7=
EXTT8=
EXTT9=
EXTT10=
EXTT11=
EXTT12=
PLAYORDER=
